<mxfile host="app.diagrams.net" modified="2024-04-24T20:26:24.076Z" agent="Mozilla/5.0 (Windows NT 10.0; Win64; x64) AppleWebKit/537.36 (KHTML, like Gecko) Chrome/124.0.0.0 Safari/537.36" etag="RMEap4W-7WXjf-TouQlx" version="24.2.8" type="google">
  <diagram name="페이지-1" id="LqtfSN0Ss2YATkGfucQI">
    <mxGraphModel grid="1" page="1" gridSize="10" guides="1" tooltips="1" connect="1" arrows="1" fold="1" pageScale="1" pageWidth="827" pageHeight="1169" math="0" shadow="0">
      <root>
        <mxCell id="0" />
        <mxCell id="1" parent="0" />
        <mxCell id="tgbROBhhf7KlIg7N5KjR-37" value="" style="rounded=0;whiteSpace=wrap;html=1;movable=0;resizable=0;rotatable=0;deletable=0;editable=0;locked=1;connectable=0;" vertex="1" parent="1">
          <mxGeometry x="-819.68" y="10" width="2469.68" height="1130" as="geometry" />
        </mxCell>
        <mxCell id="fU5oJugifwXxQRmkuC7O-127" value="" style="fillColor=none;strokeColor=#5A6C86;dashed=1;verticalAlign=top;fontStyle=0;fontColor=#5A6C86;whiteSpace=wrap;html=1;" vertex="1" parent="1">
          <mxGeometry x="-238.9699999999999" y="788.5" width="98.94" height="230" as="geometry" />
        </mxCell>
        <mxCell id="fU5oJugifwXxQRmkuC7O-136" value="" style="fillColor=none;strokeColor=#5A6C86;dashed=1;verticalAlign=top;fontStyle=0;fontColor=#5A6C86;whiteSpace=wrap;html=1;" vertex="1" parent="1">
          <mxGeometry x="-722" y="640" width="600" height="400" as="geometry" />
        </mxCell>
        <mxCell id="fU5oJugifwXxQRmkuC7O-99" value="" style="fillColor=none;strokeColor=#5A6C86;dashed=1;verticalAlign=top;fontStyle=0;fontColor=#5A6C86;whiteSpace=wrap;html=1;" vertex="1" parent="1">
          <mxGeometry x="911" y="760" width="330" height="350" as="geometry" />
        </mxCell>
        <mxCell id="fU5oJugifwXxQRmkuC7O-1" value="" style="outlineConnect=0;dashed=0;verticalLabelPosition=bottom;verticalAlign=top;align=center;html=1;shape=mxgraph.aws3.users;fillColor=#D2D3D3;gradientColor=none;" vertex="1" parent="1">
          <mxGeometry x="409" y="31" width="50" height="50" as="geometry" />
        </mxCell>
        <mxCell id="fU5oJugifwXxQRmkuC7O-2" value="Users" style="text;html=1;align=center;verticalAlign=middle;whiteSpace=wrap;rounded=0;" vertex="1" parent="1">
          <mxGeometry x="450" y="41" width="60" height="30" as="geometry" />
        </mxCell>
        <mxCell id="fU5oJugifwXxQRmkuC7O-5" value="" style="endArrow=classic;html=1;rounded=0;exitX=0.5;exitY=1;exitDx=0;exitDy=0;exitPerimeter=0;entryX=0.5;entryY=0;entryDx=0;entryDy=0;entryPerimeter=0;" edge="1" parent="1" source="fU5oJugifwXxQRmkuC7O-1" target="fU5oJugifwXxQRmkuC7O-18">
          <mxGeometry width="50" height="50" relative="1" as="geometry">
            <mxPoint x="469" y="161" as="sourcePoint" />
            <mxPoint x="434" y="132" as="targetPoint" />
          </mxGeometry>
        </mxCell>
        <mxCell id="fU5oJugifwXxQRmkuC7O-78" value="" style="sketch=0;outlineConnect=0;fontColor=#232F3E;gradientColor=none;fillColor=#E7157B;strokeColor=none;dashed=0;verticalLabelPosition=bottom;verticalAlign=top;align=center;html=1;fontSize=12;fontStyle=0;aspect=fixed;pointerEvents=1;shape=mxgraph.aws4.cloudwatch_logs;" vertex="1" parent="1">
          <mxGeometry x="1059" y="786.5" width="53.79" height="40" as="geometry" />
        </mxCell>
        <mxCell id="fU5oJugifwXxQRmkuC7O-79" value="CloudWatch&lt;div&gt;Logs&lt;/div&gt;" style="text;html=1;align=center;verticalAlign=middle;whiteSpace=wrap;rounded=0;" vertex="1" parent="1">
          <mxGeometry x="1053.4" y="826.5" width="65" height="30" as="geometry" />
        </mxCell>
        <mxCell id="fU5oJugifwXxQRmkuC7O-80" value="" style="sketch=0;outlineConnect=0;fontColor=#232F3E;gradientColor=none;fillColor=#E7157B;strokeColor=none;dashed=0;verticalLabelPosition=bottom;verticalAlign=top;align=center;html=1;fontSize=12;fontStyle=0;aspect=fixed;pointerEvents=1;shape=mxgraph.aws4.alarm;" vertex="1" parent="1">
          <mxGeometry x="946.5" y="776.5" width="50" height="50" as="geometry" />
        </mxCell>
        <mxCell id="fU5oJugifwXxQRmkuC7O-81" value="CloudWatch&lt;div&gt;Alarm&lt;/div&gt;" style="text;html=1;align=center;verticalAlign=middle;whiteSpace=wrap;rounded=0;" vertex="1" parent="1">
          <mxGeometry x="939" y="826.5" width="65" height="30" as="geometry" />
        </mxCell>
        <mxCell id="fU5oJugifwXxQRmkuC7O-82" value="" style="endArrow=classic;html=1;rounded=0;entryX=1.053;entryY=0.6;entryDx=0;entryDy=0;entryPerimeter=0;" edge="1" parent="1" source="fU5oJugifwXxQRmkuC7O-78" target="fU5oJugifwXxQRmkuC7O-80">
          <mxGeometry width="50" height="50" relative="1" as="geometry">
            <mxPoint x="899" y="886.5" as="sourcePoint" />
            <mxPoint x="949" y="836.5" as="targetPoint" />
          </mxGeometry>
        </mxCell>
        <mxCell id="fU5oJugifwXxQRmkuC7O-83" value="" style="sketch=0;points=[[0,0,0],[0.25,0,0],[0.5,0,0],[0.75,0,0],[1,0,0],[0,1,0],[0.25,1,0],[0.5,1,0],[0.75,1,0],[1,1,0],[0,0.25,0],[0,0.5,0],[0,0.75,0],[1,0.25,0],[1,0.5,0],[1,0.75,0]];outlineConnect=0;fontColor=#232F3E;fillColor=#E7157B;strokeColor=#ffffff;dashed=0;verticalLabelPosition=bottom;verticalAlign=top;align=center;html=1;fontSize=12;fontStyle=0;aspect=fixed;shape=mxgraph.aws4.resourceIcon;resIcon=mxgraph.aws4.sns;" vertex="1" parent="1">
          <mxGeometry x="946.5" y="899" width="49" height="49" as="geometry" />
        </mxCell>
        <mxCell id="fU5oJugifwXxQRmkuC7O-84" value="SNS" style="text;html=1;align=center;verticalAlign=middle;whiteSpace=wrap;rounded=0;" vertex="1" parent="1">
          <mxGeometry x="938.5" y="948" width="65" height="30" as="geometry" />
        </mxCell>
        <mxCell id="fU5oJugifwXxQRmkuC7O-86" value="" style="endArrow=classic;html=1;rounded=0;exitX=0.5;exitY=1;exitDx=0;exitDy=0;" edge="1" parent="1" source="fU5oJugifwXxQRmkuC7O-81" target="fU5oJugifwXxQRmkuC7O-83">
          <mxGeometry width="50" height="50" relative="1" as="geometry">
            <mxPoint x="978.6374963221149" y="907.9960050551423" as="sourcePoint" />
            <mxPoint x="971" y="908" as="targetPoint" />
          </mxGeometry>
        </mxCell>
        <mxCell id="fU5oJugifwXxQRmkuC7O-87" value="" style="endArrow=classic;html=1;rounded=0;entryX=0;entryY=0.5;entryDx=0;entryDy=0;entryPerimeter=0;" edge="1" parent="1" source="fU5oJugifwXxQRmkuC7O-83" target="fU5oJugifwXxQRmkuC7O-89">
          <mxGeometry width="50" height="50" relative="1" as="geometry">
            <mxPoint x="1051" y="948" as="sourcePoint" />
            <mxPoint x="1041" y="924" as="targetPoint" />
            <Array as="points">
              <mxPoint x="1021" y="924" />
            </Array>
          </mxGeometry>
        </mxCell>
        <mxCell id="fU5oJugifwXxQRmkuC7O-89" value="" style="sketch=0;points=[[0,0,0],[0.25,0,0],[0.5,0,0],[0.75,0,0],[1,0,0],[0,1,0],[0.25,1,0],[0.5,1,0],[0.75,1,0],[1,1,0],[0,0.25,0],[0,0.5,0],[0,0.75,0],[1,0.25,0],[1,0.5,0],[1,0.75,0]];outlineConnect=0;fontColor=#232F3E;fillColor=#ED7100;strokeColor=#ffffff;dashed=0;verticalLabelPosition=bottom;verticalAlign=top;align=center;html=1;fontSize=12;fontStyle=0;aspect=fixed;shape=mxgraph.aws4.resourceIcon;resIcon=mxgraph.aws4.lambda;" vertex="1" parent="1">
          <mxGeometry x="1061.3899999999999" y="899" width="49" height="49" as="geometry" />
        </mxCell>
        <mxCell id="fU5oJugifwXxQRmkuC7O-91" value="Lambda" style="text;html=1;align=center;verticalAlign=middle;whiteSpace=wrap;rounded=0;" vertex="1" parent="1">
          <mxGeometry x="1053.3899999999999" y="948" width="65" height="30" as="geometry" />
        </mxCell>
        <mxCell id="fU5oJugifwXxQRmkuC7O-92" value="" style="sketch=0;outlineConnect=0;fontColor=#232F3E;gradientColor=none;fillColor=#E7157B;strokeColor=none;dashed=0;verticalLabelPosition=bottom;verticalAlign=top;align=center;html=1;fontSize=12;fontStyle=0;aspect=fixed;pointerEvents=1;shape=mxgraph.aws4.parameter_store;" vertex="1" parent="1">
          <mxGeometry x="1161" y="899" width="47.12" height="49" as="geometry" />
        </mxCell>
        <mxCell id="fU5oJugifwXxQRmkuC7O-93" value="" style="endArrow=classic;html=1;rounded=0;exitX=1;exitY=0.5;exitDx=0;exitDy=0;exitPerimeter=0;" edge="1" parent="1" source="fU5oJugifwXxQRmkuC7O-89" target="fU5oJugifwXxQRmkuC7O-92">
          <mxGeometry width="50" height="50" relative="1" as="geometry">
            <mxPoint x="1051" y="948" as="sourcePoint" />
            <mxPoint x="1101" y="898" as="targetPoint" />
          </mxGeometry>
        </mxCell>
        <mxCell id="fU5oJugifwXxQRmkuC7O-94" value="Parameter&lt;div&gt;Store&lt;/div&gt;" style="text;html=1;align=center;verticalAlign=middle;whiteSpace=wrap;rounded=0;" vertex="1" parent="1">
          <mxGeometry x="1152.06" y="948" width="65" height="30" as="geometry" />
        </mxCell>
        <mxCell id="fU5oJugifwXxQRmkuC7O-95" value="" style="shape=image;html=1;verticalAlign=top;verticalLabelPosition=bottom;labelBackgroundColor=#ffffff;imageAspect=0;aspect=fixed;image=https://cdn2.iconfinder.com/data/icons/social-media-2285/512/1_Slack_colored_svg-128.png" vertex="1" parent="1">
          <mxGeometry x="1062.79" y="1018" width="50" height="50" as="geometry" />
        </mxCell>
        <mxCell id="fU5oJugifwXxQRmkuC7O-96" value="" style="endArrow=classic;html=1;rounded=0;exitX=0.5;exitY=1;exitDx=0;exitDy=0;entryX=0.473;entryY=-0.094;entryDx=0;entryDy=0;entryPerimeter=0;" edge="1" parent="1" source="fU5oJugifwXxQRmkuC7O-91" target="fU5oJugifwXxQRmkuC7O-95">
          <mxGeometry width="50" height="50" relative="1" as="geometry">
            <mxPoint x="1051" y="1068" as="sourcePoint" />
            <mxPoint x="1101" y="1018" as="targetPoint" />
          </mxGeometry>
        </mxCell>
        <mxCell id="fU5oJugifwXxQRmkuC7O-97" value="Slack&lt;div&gt;Workspace&lt;/div&gt;" style="text;html=1;align=center;verticalAlign=middle;whiteSpace=wrap;rounded=0;" vertex="1" parent="1">
          <mxGeometry x="1059" y="1074" width="65" height="30" as="geometry" />
        </mxCell>
        <mxCell id="fU5oJugifwXxQRmkuC7O-98" value="AWS Cloud" style="points=[[0,0],[0.25,0],[0.5,0],[0.75,0],[1,0],[1,0.25],[1,0.5],[1,0.75],[1,1],[0.75,1],[0.5,1],[0.25,1],[0,1],[0,0.75],[0,0.5],[0,0.25]];outlineConnect=0;gradientColor=none;html=1;whiteSpace=wrap;fontSize=12;fontStyle=0;container=1;pointerEvents=0;collapsible=0;recursiveResize=0;shape=mxgraph.aws4.group;grIcon=mxgraph.aws4.group_aws_cloud_alt;strokeColor=#232F3E;fillColor=none;verticalAlign=top;align=left;spacingLeft=30;fontColor=#232F3E;dashed=0;" vertex="1" parent="1">
          <mxGeometry x="45" y="101" width="795" height="1019" as="geometry" />
        </mxCell>
        <mxCell id="fU5oJugifwXxQRmkuC7O-4" value="(Seoul)" style="text;html=1;align=center;verticalAlign=middle;whiteSpace=wrap;rounded=0;" vertex="1" parent="fU5oJugifwXxQRmkuC7O-98">
          <mxGeometry x="98" y="-1.5" width="60" height="30" as="geometry" />
        </mxCell>
        <mxCell id="fU5oJugifwXxQRmkuC7O-24" value="VPC" style="points=[[0,0],[0.25,0],[0.5,0],[0.75,0],[1,0],[1,0.25],[1,0.5],[1,0.75],[1,1],[0.75,1],[0.5,1],[0.25,1],[0,1],[0,0.75],[0,0.5],[0,0.25]];outlineConnect=0;gradientColor=none;html=1;whiteSpace=wrap;fontSize=12;fontStyle=0;container=1;pointerEvents=0;collapsible=0;recursiveResize=0;shape=mxgraph.aws4.group;grIcon=mxgraph.aws4.group_vpc2;strokeColor=#8C4FFF;fillColor=none;verticalAlign=top;align=left;spacingLeft=30;fontColor=#AAB7B8;dashed=0;" vertex="1" parent="fU5oJugifwXxQRmkuC7O-98">
          <mxGeometry x="52" y="48.5" width="682" height="861.5" as="geometry" />
        </mxCell>
        <mxCell id="fU5oJugifwXxQRmkuC7O-25" value="Availability zone - a" style="sketch=0;outlineConnect=0;gradientColor=none;html=1;whiteSpace=wrap;fontSize=12;fontStyle=0;shape=mxgraph.aws4.group;grIcon=mxgraph.aws4.group_availability_zone;strokeColor=#545B64;fillColor=none;verticalAlign=top;align=left;spacingLeft=30;fontColor=#545B64;dashed=1;" vertex="1" parent="fU5oJugifwXxQRmkuC7O-24">
          <mxGeometry x="50" y="75" width="230" height="765" as="geometry" />
        </mxCell>
        <mxCell id="fU5oJugifwXxQRmkuC7O-61" value="Private subnet" style="points=[[0,0],[0.25,0],[0.5,0],[0.75,0],[1,0],[1,0.25],[1,0.5],[1,0.75],[1,1],[0.75,1],[0.5,1],[0.25,1],[0,1],[0,0.75],[0,0.5],[0,0.25]];outlineConnect=0;gradientColor=none;html=1;whiteSpace=wrap;fontSize=12;fontStyle=0;container=1;pointerEvents=0;collapsible=0;recursiveResize=0;shape=mxgraph.aws4.group;grIcon=mxgraph.aws4.group_security_group;grStroke=0;strokeColor=#00A4A6;fillColor=#E6F6F7;verticalAlign=top;align=left;spacingLeft=30;fontColor=#147EBA;dashed=0;" vertex="1" parent="fU5oJugifwXxQRmkuC7O-24">
          <mxGeometry x="70" y="674" width="200" height="144" as="geometry" />
        </mxCell>
        <mxCell id="fU5oJugifwXxQRmkuC7O-69" value="" style="outlineConnect=0;dashed=0;verticalLabelPosition=bottom;verticalAlign=top;align=center;html=1;shape=mxgraph.aws3.rds;fillColor=#2E73B8;gradientColor=none;" vertex="1" parent="fU5oJugifwXxQRmkuC7O-61">
          <mxGeometry x="63.5" y="47.5" width="50" height="60" as="geometry" />
        </mxCell>
        <mxCell id="fU5oJugifwXxQRmkuC7O-41" value="Private subnet" style="points=[[0,0],[0.25,0],[0.5,0],[0.75,0],[1,0],[1,0.25],[1,0.5],[1,0.75],[1,1],[0.75,1],[0.5,1],[0.25,1],[0,1],[0,0.75],[0,0.5],[0,0.25]];outlineConnect=0;gradientColor=none;html=1;whiteSpace=wrap;fontSize=12;fontStyle=0;container=1;pointerEvents=0;collapsible=0;recursiveResize=0;shape=mxgraph.aws4.group;grIcon=mxgraph.aws4.group_security_group;grStroke=0;strokeColor=#00A4A6;fillColor=#E6F6F7;verticalAlign=top;align=left;spacingLeft=30;fontColor=#147EBA;dashed=0;" vertex="1" parent="fU5oJugifwXxQRmkuC7O-24">
          <mxGeometry x="70" y="482" width="200" height="155" as="geometry" />
        </mxCell>
        <mxCell id="fU5oJugifwXxQRmkuC7O-28" value="Public subnet" style="points=[[0,0],[0.25,0],[0.5,0],[0.75,0],[1,0],[1,0.25],[1,0.5],[1,0.75],[1,1],[0.75,1],[0.5,1],[0.25,1],[0,1],[0,0.75],[0,0.5],[0,0.25]];outlineConnect=0;gradientColor=none;html=1;whiteSpace=wrap;fontSize=12;fontStyle=0;container=1;pointerEvents=0;collapsible=0;recursiveResize=0;shape=mxgraph.aws4.group;grIcon=mxgraph.aws4.group_security_group;grStroke=0;strokeColor=#7AA116;fillColor=#F2F6E8;verticalAlign=top;align=left;spacingLeft=30;fontColor=#248814;dashed=0;" vertex="1" parent="fU5oJugifwXxQRmkuC7O-24">
          <mxGeometry x="69" y="115" width="200" height="157" as="geometry" />
        </mxCell>
        <mxCell id="fU5oJugifwXxQRmkuC7O-30" value="" style="outlineConnect=0;dashed=0;verticalLabelPosition=bottom;verticalAlign=top;align=center;html=1;shape=mxgraph.aws3.vpc_nat_gateway;fillColor=#F58534;gradientColor=none;" vertex="1" parent="fU5oJugifwXxQRmkuC7O-28">
          <mxGeometry x="77.5" y="55" width="38" height="40" as="geometry" />
        </mxCell>
        <mxCell id="fU5oJugifwXxQRmkuC7O-27" value="NAT" style="text;html=1;align=center;verticalAlign=middle;whiteSpace=wrap;rounded=0;" vertex="1" parent="fU5oJugifwXxQRmkuC7O-28">
          <mxGeometry x="66.5" y="95.5" width="60" height="30" as="geometry" />
        </mxCell>
        <mxCell id="fU5oJugifwXxQRmkuC7O-40" value="Availability zone - c" style="sketch=0;outlineConnect=0;gradientColor=none;html=1;whiteSpace=wrap;fontSize=12;fontStyle=0;shape=mxgraph.aws4.group;grIcon=mxgraph.aws4.group_availability_zone;strokeColor=#545B64;fillColor=none;verticalAlign=top;align=left;spacingLeft=30;fontColor=#545B64;dashed=1;" vertex="1" parent="fU5oJugifwXxQRmkuC7O-24">
          <mxGeometry x="393" y="75" width="237" height="765" as="geometry" />
        </mxCell>
        <mxCell id="fU5oJugifwXxQRmkuC7O-37" value="Public subnet" style="points=[[0,0],[0.25,0],[0.5,0],[0.75,0],[1,0],[1,0.25],[1,0.5],[1,0.75],[1,1],[0.75,1],[0.5,1],[0.25,1],[0,1],[0,0.75],[0,0.5],[0,0.25]];outlineConnect=0;gradientColor=none;html=1;whiteSpace=wrap;fontSize=12;fontStyle=0;container=1;pointerEvents=0;collapsible=0;recursiveResize=0;shape=mxgraph.aws4.group;grIcon=mxgraph.aws4.group_security_group;grStroke=0;strokeColor=#7AA116;fillColor=#F2F6E8;verticalAlign=top;align=left;spacingLeft=30;fontColor=#248814;dashed=0;" vertex="1" parent="fU5oJugifwXxQRmkuC7O-24">
          <mxGeometry x="407" y="115" width="194" height="157" as="geometry" />
        </mxCell>
        <mxCell id="tgbROBhhf7KlIg7N5KjR-27" value="NAT" style="text;html=1;align=center;verticalAlign=middle;whiteSpace=wrap;rounded=0;" vertex="1" parent="fU5oJugifwXxQRmkuC7O-37">
          <mxGeometry x="67" y="95.5" width="60" height="30" as="geometry" />
        </mxCell>
        <mxCell id="tgbROBhhf7KlIg7N5KjR-26" value="" style="outlineConnect=0;dashed=0;verticalLabelPosition=bottom;verticalAlign=top;align=center;html=1;shape=mxgraph.aws3.vpc_nat_gateway;fillColor=#F58534;gradientColor=none;" vertex="1" parent="fU5oJugifwXxQRmkuC7O-37">
          <mxGeometry x="78" y="55.5" width="38" height="40" as="geometry" />
        </mxCell>
        <mxCell id="fU5oJugifwXxQRmkuC7O-49" value="Private subnet" style="points=[[0,0],[0.25,0],[0.5,0],[0.75,0],[1,0],[1,0.25],[1,0.5],[1,0.75],[1,1],[0.75,1],[0.5,1],[0.25,1],[0,1],[0,0.75],[0,0.5],[0,0.25]];outlineConnect=0;gradientColor=none;html=1;whiteSpace=wrap;fontSize=12;fontStyle=0;container=1;pointerEvents=0;collapsible=0;recursiveResize=0;shape=mxgraph.aws4.group;grIcon=mxgraph.aws4.group_security_group;grStroke=0;strokeColor=#00A4A6;fillColor=#E6F6F7;verticalAlign=top;align=left;spacingLeft=30;fontColor=#147EBA;dashed=0;" vertex="1" parent="fU5oJugifwXxQRmkuC7O-24">
          <mxGeometry x="408" y="482" width="192" height="158" as="geometry" />
        </mxCell>
        <mxCell id="fU5oJugifwXxQRmkuC7O-64" value="Private subnet" style="points=[[0,0],[0.25,0],[0.5,0],[0.75,0],[1,0],[1,0.25],[1,0.5],[1,0.75],[1,1],[0.75,1],[0.5,1],[0.25,1],[0,1],[0,0.75],[0,0.5],[0,0.25]];outlineConnect=0;gradientColor=none;html=1;whiteSpace=wrap;fontSize=12;fontStyle=0;container=1;pointerEvents=0;collapsible=0;recursiveResize=0;shape=mxgraph.aws4.group;grIcon=mxgraph.aws4.group_security_group;grStroke=0;strokeColor=#00A4A6;fillColor=#E6F6F7;verticalAlign=top;align=left;spacingLeft=30;fontColor=#147EBA;dashed=0;" vertex="1" parent="fU5oJugifwXxQRmkuC7O-24">
          <mxGeometry x="408" y="674" width="192" height="147" as="geometry" />
        </mxCell>
        <mxCell id="fU5oJugifwXxQRmkuC7O-70" value="" style="outlineConnect=0;dashed=0;verticalLabelPosition=bottom;verticalAlign=top;align=center;html=1;shape=mxgraph.aws3.rds;fillColor=#2E73B8;gradientColor=none;" vertex="1" parent="fU5oJugifwXxQRmkuC7O-64">
          <mxGeometry x="68" y="47.5" width="50" height="60" as="geometry" />
        </mxCell>
        <mxCell id="fU5oJugifwXxQRmkuC7O-63" value="RDS&lt;div&gt;(Active)&lt;/div&gt;" style="text;html=1;align=center;verticalAlign=middle;whiteSpace=wrap;rounded=0;" vertex="1" parent="fU5oJugifwXxQRmkuC7O-24">
          <mxGeometry x="128" y="783.5" width="60" height="30" as="geometry" />
        </mxCell>
        <mxCell id="fU5oJugifwXxQRmkuC7O-71" value="" style="endArrow=classic;startArrow=classic;html=1;rounded=0;exitX=1;exitY=0.5;exitDx=0;exitDy=0;exitPerimeter=0;" edge="1" parent="fU5oJugifwXxQRmkuC7O-24" source="fU5oJugifwXxQRmkuC7O-69" target="fU5oJugifwXxQRmkuC7O-70">
          <mxGeometry width="50" height="50" relative="1" as="geometry">
            <mxPoint x="237" y="713" as="sourcePoint" />
            <mxPoint x="287" y="663" as="targetPoint" />
          </mxGeometry>
        </mxCell>
        <mxCell id="fU5oJugifwXxQRmkuC7O-77" value="" style="endArrow=classic;html=1;rounded=0;" edge="1" parent="fU5oJugifwXxQRmkuC7O-24">
          <mxGeometry width="50" height="50" relative="1" as="geometry">
            <mxPoint x="505" y="632.5" as="sourcePoint" />
            <mxPoint x="164" y="721.5" as="targetPoint" />
            <Array as="points">
              <mxPoint x="505" y="647.5" />
              <mxPoint x="164" y="647.5" />
            </Array>
          </mxGeometry>
        </mxCell>
        <mxCell id="fU5oJugifwXxQRmkuC7O-34" value="" style="outlineConnect=0;dashed=0;verticalLabelPosition=bottom;verticalAlign=top;align=center;html=1;shape=mxgraph.aws3.application_load_balancer;fillColor=#F58534;gradientColor=none;" vertex="1" parent="fU5oJugifwXxQRmkuC7O-24">
          <mxGeometry x="316.5" y="462.5" width="38.75" height="40" as="geometry" />
        </mxCell>
        <mxCell id="fU5oJugifwXxQRmkuC7O-66" value="RDS&lt;div&gt;(Standby)&lt;/div&gt;" style="text;html=1;align=center;verticalAlign=middle;whiteSpace=wrap;rounded=0;" vertex="1" parent="fU5oJugifwXxQRmkuC7O-24">
          <mxGeometry x="470.75" y="783.5" width="60" height="30" as="geometry" />
        </mxCell>
        <mxCell id="tgbROBhhf7KlIg7N5KjR-12" value="" style="sketch=0;points=[[0,0,0],[0.25,0,0],[0.5,0,0],[0.75,0,0],[1,0,0],[0,1,0],[0.25,1,0],[0.5,1,0],[0.75,1,0],[1,1,0],[0,0.25,0],[0,0.5,0],[0,0.75,0],[1,0.25,0],[1,0.5,0],[1,0.75,0]];outlineConnect=0;fontColor=#232F3E;fillColor=#ED7100;strokeColor=#ffffff;dashed=0;verticalLabelPosition=bottom;verticalAlign=top;align=center;html=1;fontSize=12;fontStyle=0;aspect=fixed;shape=mxgraph.aws4.resourceIcon;resIcon=mxgraph.aws4.ec2;" vertex="1" parent="fU5oJugifwXxQRmkuC7O-24">
          <mxGeometry x="478.25" y="554.5" width="45" height="45" as="geometry" />
        </mxCell>
        <mxCell id="tgbROBhhf7KlIg7N5KjR-10" value="" style="sketch=0;points=[[0,0,0],[0.25,0,0],[0.5,0,0],[0.75,0,0],[1,0,0],[0,1,0],[0.25,1,0],[0.5,1,0],[0.75,1,0],[1,1,0],[0,0.25,0],[0,0.5,0],[0,0.75,0],[1,0.25,0],[1,0.5,0],[1,0.75,0]];outlineConnect=0;fontColor=#232F3E;fillColor=#ED7100;strokeColor=#ffffff;dashed=0;verticalLabelPosition=bottom;verticalAlign=top;align=center;html=1;fontSize=12;fontStyle=0;aspect=fixed;shape=mxgraph.aws4.resourceIcon;resIcon=mxgraph.aws4.ec2;" vertex="1" parent="fU5oJugifwXxQRmkuC7O-24">
          <mxGeometry x="142.5" y="554.5" width="45" height="45" as="geometry" />
        </mxCell>
        <mxCell id="tgbROBhhf7KlIg7N5KjR-38" value="" style="endArrow=classic;html=1;rounded=0;exitX=0.5;exitY=1;exitDx=0;exitDy=0;exitPerimeter=0;" edge="1" parent="fU5oJugifwXxQRmkuC7O-24" source="fU5oJugifwXxQRmkuC7O-34">
          <mxGeometry width="50" height="50" relative="1" as="geometry">
            <mxPoint x="336.375" y="509.5" as="sourcePoint" />
            <mxPoint x="163" y="554.5" as="targetPoint" />
            <Array as="points">
              <mxPoint x="336" y="512.5" />
              <mxPoint x="163" y="512.5" />
              <mxPoint x="163" y="554.5" />
            </Array>
          </mxGeometry>
        </mxCell>
        <mxCell id="pS93w77z2RvfIC005EYZ-4" value="Private subnet" style="points=[[0,0],[0.25,0],[0.5,0],[0.75,0],[1,0],[1,0.25],[1,0.5],[1,0.75],[1,1],[0.75,1],[0.5,1],[0.25,1],[0,1],[0,0.75],[0,0.5],[0,0.25]];outlineConnect=0;gradientColor=none;html=1;whiteSpace=wrap;fontSize=12;fontStyle=0;container=1;pointerEvents=0;collapsible=0;recursiveResize=0;shape=mxgraph.aws4.group;grIcon=mxgraph.aws4.group_security_group;grStroke=0;strokeColor=#00A4A6;fillColor=#E6F6F7;verticalAlign=top;align=left;spacingLeft=30;fontColor=#147EBA;dashed=0;" vertex="1" parent="fU5oJugifwXxQRmkuC7O-24">
          <mxGeometry x="70" y="299.5" width="200" height="155" as="geometry" />
        </mxCell>
        <mxCell id="pS93w77z2RvfIC005EYZ-5" value="Private subnet" style="points=[[0,0],[0.25,0],[0.5,0],[0.75,0],[1,0],[1,0.25],[1,0.5],[1,0.75],[1,1],[0.75,1],[0.5,1],[0.25,1],[0,1],[0,0.75],[0,0.5],[0,0.25]];outlineConnect=0;gradientColor=none;html=1;whiteSpace=wrap;fontSize=12;fontStyle=0;container=1;pointerEvents=0;collapsible=0;recursiveResize=0;shape=mxgraph.aws4.group;grIcon=mxgraph.aws4.group_security_group;grStroke=0;strokeColor=#00A4A6;fillColor=#E6F6F7;verticalAlign=top;align=left;spacingLeft=30;fontColor=#147EBA;dashed=0;" vertex="1" parent="fU5oJugifwXxQRmkuC7O-24">
          <mxGeometry x="408" y="299.5" width="192" height="158" as="geometry" />
        </mxCell>
        <mxCell id="pS93w77z2RvfIC005EYZ-7" value="" style="outlineConnect=0;dashed=0;verticalLabelPosition=bottom;verticalAlign=top;align=center;html=1;shape=mxgraph.aws3.application_load_balancer;fillColor=#F58534;gradientColor=none;" vertex="1" parent="fU5oJugifwXxQRmkuC7O-24">
          <mxGeometry x="316.5" y="115" width="38.75" height="40" as="geometry" />
        </mxCell>
        <mxCell id="pS93w77z2RvfIC005EYZ-8" value="" style="sketch=0;points=[[0,0,0],[0.25,0,0],[0.5,0,0],[0.75,0,0],[1,0,0],[0,1,0],[0.25,1,0],[0.5,1,0],[0.75,1,0],[1,1,0],[0,0.25,0],[0,0.5,0],[0,0.75,0],[1,0.25,0],[1,0.5,0],[1,0.75,0]];outlineConnect=0;fontColor=#232F3E;fillColor=#ED7100;strokeColor=#ffffff;dashed=0;verticalLabelPosition=bottom;verticalAlign=top;align=center;html=1;fontSize=12;fontStyle=0;aspect=fixed;shape=mxgraph.aws4.resourceIcon;resIcon=mxgraph.aws4.ec2;" vertex="1" parent="fU5oJugifwXxQRmkuC7O-24">
          <mxGeometry x="477.25" y="372.5" width="45" height="45" as="geometry" />
        </mxCell>
        <mxCell id="pS93w77z2RvfIC005EYZ-9" value="" style="sketch=0;points=[[0,0,0],[0.25,0,0],[0.5,0,0],[0.75,0,0],[1,0,0],[0,1,0],[0.25,1,0],[0.5,1,0],[0.75,1,0],[1,1,0],[0,0.25,0],[0,0.5,0],[0,0.75,0],[1,0.25,0],[1,0.5,0],[1,0.75,0]];outlineConnect=0;fontColor=#232F3E;fillColor=#ED7100;strokeColor=#ffffff;dashed=0;verticalLabelPosition=bottom;verticalAlign=top;align=center;html=1;fontSize=12;fontStyle=0;aspect=fixed;shape=mxgraph.aws4.resourceIcon;resIcon=mxgraph.aws4.ec2;" vertex="1" parent="fU5oJugifwXxQRmkuC7O-24">
          <mxGeometry x="141.5" y="372.5" width="45" height="45" as="geometry" />
        </mxCell>
        <mxCell id="pS93w77z2RvfIC005EYZ-10" value="" style="endArrow=classic;html=1;rounded=0;exitX=0.5;exitY=1;exitDx=0;exitDy=0;exitPerimeter=0;" edge="1" parent="fU5oJugifwXxQRmkuC7O-24" source="pS93w77z2RvfIC005EYZ-7">
          <mxGeometry width="50" height="50" relative="1" as="geometry">
            <mxPoint x="335.375" y="327.5" as="sourcePoint" />
            <mxPoint x="162" y="372.5" as="targetPoint" />
            <Array as="points">
              <mxPoint x="335" y="330.5" />
              <mxPoint x="162" y="330.5" />
              <mxPoint x="162" y="372.5" />
            </Array>
          </mxGeometry>
        </mxCell>
        <mxCell id="pS93w77z2RvfIC005EYZ-11" value="Auto Scaling group" style="points=[[0,0],[0.25,0],[0.5,0],[0.75,0],[1,0],[1,0.25],[1,0.5],[1,0.75],[1,1],[0.75,1],[0.5,1],[0.25,1],[0,1],[0,0.75],[0,0.5],[0,0.25]];outlineConnect=0;gradientColor=none;html=1;whiteSpace=wrap;fontSize=12;fontStyle=0;container=1;pointerEvents=0;collapsible=0;recursiveResize=0;shape=mxgraph.aws4.groupCenter;grIcon=mxgraph.aws4.group_auto_scaling_group;grStroke=1;strokeColor=#D86613;fillColor=none;verticalAlign=top;align=center;fontColor=#D86613;dashed=1;spacingTop=25;" vertex="1" parent="fU5oJugifwXxQRmkuC7O-24">
          <mxGeometry x="96" y="358" width="490" height="90" as="geometry" />
        </mxCell>
        <mxCell id="pS93w77z2RvfIC005EYZ-12" value="EC2" style="text;html=1;align=center;verticalAlign=middle;whiteSpace=wrap;rounded=0;" vertex="1" parent="pS93w77z2RvfIC005EYZ-11">
          <mxGeometry x="38.5" y="60" width="60" height="30" as="geometry" />
        </mxCell>
        <mxCell id="pS93w77z2RvfIC005EYZ-13" value="EC2" style="text;html=1;align=center;verticalAlign=middle;whiteSpace=wrap;rounded=0;" vertex="1" parent="pS93w77z2RvfIC005EYZ-11">
          <mxGeometry x="378.5" y="59.5" width="60" height="30" as="geometry" />
        </mxCell>
        <mxCell id="pS93w77z2RvfIC005EYZ-14" value="" style="endArrow=classic;html=1;rounded=0;entryX=0.5;entryY=0;entryDx=0;entryDy=0;entryPerimeter=0;" edge="1" parent="fU5oJugifwXxQRmkuC7O-24" target="pS93w77z2RvfIC005EYZ-8">
          <mxGeometry width="50" height="50" relative="1" as="geometry">
            <mxPoint x="332" y="330.5" as="sourcePoint" />
            <mxPoint x="282" y="310.5" as="targetPoint" />
            <Array as="points">
              <mxPoint x="500" y="330.5" />
            </Array>
          </mxGeometry>
        </mxCell>
        <mxCell id="fU5oJugifwXxQRmkuC7O-18" value="" style="outlineConnect=0;dashed=0;verticalLabelPosition=bottom;verticalAlign=top;align=center;html=1;shape=mxgraph.aws3.internet_gateway;fillColor=#F58534;gradientColor=none;" vertex="1" parent="fU5oJugifwXxQRmkuC7O-98">
          <mxGeometry x="369" y="28.5" width="40" height="40" as="geometry" />
        </mxCell>
        <mxCell id="fU5oJugifwXxQRmkuC7O-19" value="Internet Gateway" style="text;html=1;align=center;verticalAlign=middle;whiteSpace=wrap;rounded=0;" vertex="1" parent="fU5oJugifwXxQRmkuC7O-98">
          <mxGeometry x="359.01" y="68.5" width="60" height="30" as="geometry" />
        </mxCell>
        <mxCell id="wI96h23SFb1snygLTn_X-1" value="" style="sketch=0;points=[[0,0,0],[0.25,0,0],[0.5,0,0],[0.75,0,0],[1,0,0],[0,1,0],[0.25,1,0],[0.5,1,0],[0.75,1,0],[1,1,0],[0,0.25,0],[0,0.5,0],[0,0.75,0],[1,0.25,0],[1,0.5,0],[1,0.75,0]];outlineConnect=0;fontColor=#232F3E;fillColor=#7AA116;strokeColor=#ffffff;dashed=0;verticalLabelPosition=bottom;verticalAlign=top;align=center;html=1;fontSize=12;fontStyle=0;aspect=fixed;shape=mxgraph.aws4.resourceIcon;resIcon=mxgraph.aws4.s3;" vertex="1" parent="fU5oJugifwXxQRmkuC7O-98">
          <mxGeometry x="180" y="935" width="60" height="60" as="geometry" />
        </mxCell>
        <mxCell id="wI96h23SFb1snygLTn_X-2" value="" style="endArrow=classic;html=1;rounded=0;exitX=0.5;exitY=1;exitDx=0;exitDy=0;" edge="1" parent="fU5oJugifwXxQRmkuC7O-98" source="fU5oJugifwXxQRmkuC7O-63" target="wI96h23SFb1snygLTn_X-1">
          <mxGeometry width="50" height="50" relative="1" as="geometry">
            <mxPoint x="285" y="760" as="sourcePoint" />
            <mxPoint x="335" y="710" as="targetPoint" />
          </mxGeometry>
        </mxCell>
        <mxCell id="wI96h23SFb1snygLTn_X-3" value="S3" style="text;html=1;align=center;verticalAlign=middle;whiteSpace=wrap;rounded=0;" vertex="1" parent="fU5oJugifwXxQRmkuC7O-98">
          <mxGeometry x="180" y="989" width="60" height="30" as="geometry" />
        </mxCell>
        <mxCell id="fU5oJugifwXxQRmkuC7O-106" value="" style="outlineConnect=0;dashed=0;verticalLabelPosition=bottom;verticalAlign=top;align=center;html=1;shape=mxgraph.aws3.user;fillColor=#D2D3D3;gradientColor=none;" vertex="1" parent="1">
          <mxGeometry x="-699.68" y="788.5" width="45" height="63" as="geometry" />
        </mxCell>
        <mxCell id="fU5oJugifwXxQRmkuC7O-107" value="" style="outlineConnect=0;dashed=0;verticalLabelPosition=bottom;verticalAlign=top;align=center;html=1;shape=mxgraph.aws3.codecommit;fillColor=#759C3E;gradientColor=none;" vertex="1" parent="1">
          <mxGeometry x="-549.68" y="780" width="60" height="80" as="geometry" />
        </mxCell>
        <mxCell id="fU5oJugifwXxQRmkuC7O-109" value="CodeCommit" style="text;html=1;align=center;verticalAlign=middle;whiteSpace=wrap;rounded=0;" vertex="1" parent="1">
          <mxGeometry x="-549.68" y="860" width="65" height="30" as="geometry" />
        </mxCell>
        <mxCell id="fU5oJugifwXxQRmkuC7O-110" value="" style="outlineConnect=0;dashed=0;verticalLabelPosition=bottom;verticalAlign=top;align=center;html=1;shape=mxgraph.aws3.codepipeline;fillColor=#759C3E;gradientColor=none;" vertex="1" parent="1">
          <mxGeometry x="-417.18" y="650" width="60" height="70" as="geometry" />
        </mxCell>
        <mxCell id="fU5oJugifwXxQRmkuC7O-111" value="CodePipeline" style="text;html=1;align=center;verticalAlign=middle;whiteSpace=wrap;rounded=0;" vertex="1" parent="1">
          <mxGeometry x="-419.68" y="719" width="65" height="30" as="geometry" />
        </mxCell>
        <mxCell id="fU5oJugifwXxQRmkuC7O-112" value="" style="endArrow=classic;html=1;rounded=0;entryX=0;entryY=0.5;entryDx=0;entryDy=0;entryPerimeter=0;" edge="1" parent="1" source="fU5oJugifwXxQRmkuC7O-106" target="fU5oJugifwXxQRmkuC7O-107">
          <mxGeometry width="50" height="50" relative="1" as="geometry">
            <mxPoint x="-439.68000000000006" y="830" as="sourcePoint" />
            <mxPoint x="-389.68" y="780" as="targetPoint" />
          </mxGeometry>
        </mxCell>
        <mxCell id="fU5oJugifwXxQRmkuC7O-113" value="" style="endArrow=classic;html=1;rounded=0;exitX=0.5;exitY=0;exitDx=0;exitDy=0;exitPerimeter=0;entryX=0;entryY=0.5;entryDx=0;entryDy=0;entryPerimeter=0;" edge="1" parent="1" source="fU5oJugifwXxQRmkuC7O-107" target="fU5oJugifwXxQRmkuC7O-110">
          <mxGeometry width="50" height="50" relative="1" as="geometry">
            <mxPoint x="-439.68000000000006" y="830" as="sourcePoint" />
            <mxPoint x="-389.68" y="780" as="targetPoint" />
            <Array as="points">
              <mxPoint x="-520" y="685" />
            </Array>
          </mxGeometry>
        </mxCell>
        <mxCell id="fU5oJugifwXxQRmkuC7O-115" value="" style="outlineConnect=0;dashed=0;verticalLabelPosition=bottom;verticalAlign=top;align=center;html=1;shape=mxgraph.aws3.codebuild;fillColor=#759C3E;gradientColor=none;" vertex="1" parent="1">
          <mxGeometry x="-417.18" y="788.5" width="60" height="71.5" as="geometry" />
        </mxCell>
        <mxCell id="fU5oJugifwXxQRmkuC7O-116" value="CodeBuild" style="text;html=1;align=center;verticalAlign=middle;whiteSpace=wrap;rounded=0;" vertex="1" parent="1">
          <mxGeometry x="-418.68" y="860" width="65" height="30" as="geometry" />
        </mxCell>
        <mxCell id="fU5oJugifwXxQRmkuC7O-117" value="" style="outlineConnect=0;dashed=0;verticalLabelPosition=bottom;verticalAlign=top;align=center;html=1;shape=mxgraph.aws3.codedeploy;fillColor=#759C3E;gradientColor=none;" vertex="1" parent="1">
          <mxGeometry x="-219.5" y="791.12" width="60" height="66.25" as="geometry" />
        </mxCell>
        <mxCell id="fU5oJugifwXxQRmkuC7O-118" value="CodeDeploy" style="text;html=1;align=center;verticalAlign=middle;whiteSpace=wrap;rounded=0;" vertex="1" parent="1">
          <mxGeometry x="-224.5" y="857.38" width="65" height="30" as="geometry" />
        </mxCell>
        <mxCell id="fU5oJugifwXxQRmkuC7O-119" value="" style="shape=image;html=1;verticalAlign=top;verticalLabelPosition=bottom;labelBackgroundColor=#ffffff;imageAspect=0;aspect=fixed;image=https://cdn1.iconfinder.com/data/icons/hawcons/32/699614-icon-103-document-file-yml-128.png" vertex="1" parent="1">
          <mxGeometry x="-412.18" y="930" width="50" height="50" as="geometry" />
        </mxCell>
        <mxCell id="fU5oJugifwXxQRmkuC7O-121" value="" style="endArrow=classic;html=1;rounded=0;exitX=0.5;exitY=0;exitDx=0;exitDy=0;" edge="1" parent="1" source="fU5oJugifwXxQRmkuC7O-119" target="fU5oJugifwXxQRmkuC7O-116">
          <mxGeometry width="50" height="50" relative="1" as="geometry">
            <mxPoint x="-169.68" y="890" as="sourcePoint" />
            <mxPoint x="-119.68" y="840" as="targetPoint" />
          </mxGeometry>
        </mxCell>
        <mxCell id="fU5oJugifwXxQRmkuC7O-122" value="" style="endArrow=classic;html=1;rounded=0;exitX=0.5;exitY=0;exitDx=0;exitDy=0;entryX=0.5;entryY=1;entryDx=0;entryDy=0;" edge="1" parent="1" source="fU5oJugifwXxQRmkuC7O-123" target="fU5oJugifwXxQRmkuC7O-118">
          <mxGeometry width="50" height="50" relative="1" as="geometry">
            <mxPoint x="-199.5" y="930" as="sourcePoint" />
            <mxPoint x="-79.5" y="840" as="targetPoint" />
          </mxGeometry>
        </mxCell>
        <mxCell id="fU5oJugifwXxQRmkuC7O-123" value="" style="shape=image;html=1;verticalAlign=top;verticalLabelPosition=bottom;labelBackgroundColor=#ffffff;imageAspect=0;aspect=fixed;image=https://cdn1.iconfinder.com/data/icons/hawcons/32/699614-icon-103-document-file-yml-128.png" vertex="1" parent="1">
          <mxGeometry x="-217" y="930" width="50" height="50" as="geometry" />
        </mxCell>
        <mxCell id="fU5oJugifwXxQRmkuC7O-124" value="buildspec.yml" style="text;html=1;align=center;verticalAlign=middle;whiteSpace=wrap;rounded=0;" vertex="1" parent="1">
          <mxGeometry x="-419.68" y="970" width="65" height="30" as="geometry" />
        </mxCell>
        <mxCell id="fU5oJugifwXxQRmkuC7O-125" value="appspec.yml" style="text;html=1;align=center;verticalAlign=middle;whiteSpace=wrap;rounded=0;" vertex="1" parent="1">
          <mxGeometry x="-222" y="970" width="65" height="30" as="geometry" />
        </mxCell>
        <mxCell id="fU5oJugifwXxQRmkuC7O-126" value="" style="fillColor=none;strokeColor=#5A6C86;dashed=1;verticalAlign=top;fontStyle=0;fontColor=#5A6C86;whiteSpace=wrap;html=1;" vertex="1" parent="1">
          <mxGeometry x="-435.64999999999986" y="788.5" width="98.94" height="230" as="geometry" />
        </mxCell>
        <mxCell id="fU5oJugifwXxQRmkuC7O-128" value="" style="endArrow=classic;html=1;rounded=0;entryX=-0.009;entryY=0.135;entryDx=0;entryDy=0;entryPerimeter=0;" edge="1" parent="1" target="fU5oJugifwXxQRmkuC7O-126">
          <mxGeometry width="50" height="50" relative="1" as="geometry">
            <mxPoint x="-422" y="700" as="sourcePoint" />
            <mxPoint x="-442" y="840" as="targetPoint" />
            <Array as="points">
              <mxPoint x="-462" y="700" />
              <mxPoint x="-462" y="820" />
            </Array>
          </mxGeometry>
        </mxCell>
        <mxCell id="fU5oJugifwXxQRmkuC7O-129" value="" style="outlineConnect=0;dashed=0;verticalLabelPosition=bottom;verticalAlign=top;align=center;html=1;shape=mxgraph.aws3.bucket;fillColor=#E05243;gradientColor=none;" vertex="1" parent="1">
          <mxGeometry x="-314" y="799.25" width="50.94" height="50" as="geometry" />
        </mxCell>
        <mxCell id="fU5oJugifwXxQRmkuC7O-130" value="Bucket" style="text;html=1;align=center;verticalAlign=middle;whiteSpace=wrap;rounded=0;" vertex="1" parent="1">
          <mxGeometry x="-321.03" y="849.25" width="65" height="30" as="geometry" />
        </mxCell>
        <mxCell id="fU5oJugifwXxQRmkuC7O-132" value="" style="endArrow=classic;html=1;rounded=0;entryX=0.06;entryY=0.5;entryDx=0;entryDy=0;entryPerimeter=0;" edge="1" parent="1" source="fU5oJugifwXxQRmkuC7O-115" target="fU5oJugifwXxQRmkuC7O-129">
          <mxGeometry width="50" height="50" relative="1" as="geometry">
            <mxPoint x="-292" y="920" as="sourcePoint" />
            <mxPoint x="-522" y="968.5" as="targetPoint" />
          </mxGeometry>
        </mxCell>
        <mxCell id="fU5oJugifwXxQRmkuC7O-133" value="" style="endArrow=classic;html=1;rounded=0;entryX=0;entryY=0.5;entryDx=0;entryDy=0;entryPerimeter=0;" edge="1" parent="1" source="fU5oJugifwXxQRmkuC7O-129" target="fU5oJugifwXxQRmkuC7O-117">
          <mxGeometry width="50" height="50" relative="1" as="geometry">
            <mxPoint x="-392" y="970" as="sourcePoint" />
            <mxPoint x="-342" y="920" as="targetPoint" />
          </mxGeometry>
        </mxCell>
        <mxCell id="fU5oJugifwXxQRmkuC7O-143" value="System Manager&lt;div&gt;Session Manger&lt;/div&gt;" style="text;html=1;align=center;verticalAlign=middle;whiteSpace=wrap;rounded=0;" vertex="1" parent="1">
          <mxGeometry x="1373" y="305" width="123.44" height="30" as="geometry" />
        </mxCell>
        <mxCell id="tgbROBhhf7KlIg7N5KjR-28" value="Auto Scaling group" style="points=[[0,0],[0.25,0],[0.5,0],[0.75,0],[1,0],[1,0.25],[1,0.5],[1,0.75],[1,1],[0.75,1],[0.5,1],[0.25,1],[0,1],[0,0.75],[0,0.5],[0,0.25]];outlineConnect=0;gradientColor=none;html=1;whiteSpace=wrap;fontSize=12;fontStyle=0;container=1;pointerEvents=0;collapsible=0;recursiveResize=0;shape=mxgraph.aws4.groupCenter;grIcon=mxgraph.aws4.group_auto_scaling_group;grStroke=1;strokeColor=#D86613;fillColor=none;verticalAlign=top;align=center;fontColor=#D86613;dashed=1;spacingTop=25;" vertex="1" parent="1">
          <mxGeometry x="194" y="689.5" width="490" height="90" as="geometry" />
        </mxCell>
        <mxCell id="fU5oJugifwXxQRmkuC7O-45" value="EC2" style="text;html=1;align=center;verticalAlign=middle;whiteSpace=wrap;rounded=0;" vertex="1" parent="tgbROBhhf7KlIg7N5KjR-28">
          <mxGeometry x="38.5" y="60" width="60" height="30" as="geometry" />
        </mxCell>
        <mxCell id="fU5oJugifwXxQRmkuC7O-53" value="EC2" style="text;html=1;align=center;verticalAlign=middle;whiteSpace=wrap;rounded=0;" vertex="1" parent="tgbROBhhf7KlIg7N5KjR-28">
          <mxGeometry x="378.5" y="59.5" width="60" height="30" as="geometry" />
        </mxCell>
        <mxCell id="tgbROBhhf7KlIg7N5KjR-36" value="" style="endArrow=classic;html=1;rounded=0;entryX=0.5;entryY=0;entryDx=0;entryDy=0;entryPerimeter=0;exitX=0.126;exitY=0.997;exitDx=0;exitDy=0;exitPerimeter=0;" edge="1" parent="1">
          <mxGeometry width="50" height="50" relative="1" as="geometry">
            <mxPoint x="260.74000000000024" y="779.23" as="sourcePoint" />
            <mxPoint x="260.5" y="871" as="targetPoint" />
          </mxGeometry>
        </mxCell>
        <mxCell id="fU5oJugifwXxQRmkuC7O-142" value="" style="sketch=0;points=[[0,0,0],[0.25,0,0],[0.5,0,0],[0.75,0,0],[1,0,0],[0,1,0],[0.25,1,0],[0.5,1,0],[0.75,1,0],[1,1,0],[0,0.25,0],[0,0.5,0],[0,0.75,0],[1,0.25,0],[1,0.5,0],[1,0.75,0]];points=[[0,0,0],[0.25,0,0],[0.5,0,0],[0.75,0,0],[1,0,0],[0,1,0],[0.25,1,0],[0.5,1,0],[0.75,1,0],[1,1,0],[0,0.25,0],[0,0.5,0],[0,0.75,0],[1,0.25,0],[1,0.5,0],[1,0.75,0]];outlineConnect=0;fontColor=#232F3E;fillColor=#E7157B;strokeColor=#ffffff;dashed=0;verticalLabelPosition=bottom;verticalAlign=top;align=center;html=1;fontSize=12;fontStyle=0;aspect=fixed;shape=mxgraph.aws4.resourceIcon;resIcon=mxgraph.aws4.systems_manager;" vertex="1" parent="1">
          <mxGeometry x="1313" y="290" width="60" height="60" as="geometry" />
        </mxCell>
        <mxCell id="fU5oJugifwXxQRmkuC7O-139" value="" style="sketch=0;outlineConnect=0;fontColor=#232F3E;gradientColor=none;fillColor=#E7157B;strokeColor=none;dashed=0;verticalLabelPosition=bottom;verticalAlign=top;align=center;html=1;fontSize=12;fontStyle=0;aspect=fixed;pointerEvents=1;shape=mxgraph.aws4.parameter_store;" vertex="1" parent="1">
          <mxGeometry x="1343" y="390" width="47.12" height="49" as="geometry" />
        </mxCell>
        <mxCell id="fU5oJugifwXxQRmkuC7O-140" value="Parameter&lt;div&gt;Store&lt;/div&gt;" style="text;html=1;align=center;verticalAlign=middle;whiteSpace=wrap;rounded=0;" vertex="1" parent="1">
          <mxGeometry x="1402.2199999999998" y="399.5" width="65" height="30" as="geometry" />
        </mxCell>
        <mxCell id="tgbROBhhf7KlIg7N5KjR-39" value="" style="endArrow=classic;html=1;rounded=0;entryX=0.5;entryY=0;entryDx=0;entryDy=0;entryPerimeter=0;" edge="1" parent="1" target="tgbROBhhf7KlIg7N5KjR-12">
          <mxGeometry width="50" height="50" relative="1" as="geometry">
            <mxPoint x="430" y="662" as="sourcePoint" />
            <mxPoint x="380" y="642" as="targetPoint" />
            <Array as="points">
              <mxPoint x="598" y="662" />
            </Array>
          </mxGeometry>
        </mxCell>
        <mxCell id="pS93w77z2RvfIC005EYZ-15" value="" style="endArrow=classic;html=1;rounded=0;exitX=1;exitY=0.5;exitDx=0;exitDy=0;exitPerimeter=0;entryX=0;entryY=0.5;entryDx=0;entryDy=0;" edge="1" parent="1" source="fU5oJugifwXxQRmkuC7O-117" target="tgbROBhhf7KlIg7N5KjR-28">
          <mxGeometry width="50" height="50" relative="1" as="geometry">
            <mxPoint x="-50" y="780" as="sourcePoint" />
            <mxPoint x="280" y="620" as="targetPoint" />
            <Array as="points">
              <mxPoint x="-100" y="824" />
              <mxPoint x="-100" y="735" />
            </Array>
          </mxGeometry>
        </mxCell>
        <mxCell id="pS93w77z2RvfIC005EYZ-16" value="" style="endArrow=classic;html=1;rounded=0;entryX=0;entryY=0.5;entryDx=0;entryDy=0;exitX=1;exitY=0.5;exitDx=0;exitDy=0;exitPerimeter=0;" edge="1" parent="1" source="fU5oJugifwXxQRmkuC7O-117" target="pS93w77z2RvfIC005EYZ-11">
          <mxGeometry width="50" height="50" relative="1" as="geometry">
            <mxPoint x="-340" y="740" as="sourcePoint" />
            <mxPoint x="-290" y="690" as="targetPoint" />
            <Array as="points">
              <mxPoint x="-100" y="824" />
              <mxPoint x="-100" y="553" />
            </Array>
          </mxGeometry>
        </mxCell>
        <mxCell id="pS93w77z2RvfIC005EYZ-17" value="" style="endArrow=classic;html=1;rounded=0;exitX=1;exitY=0.5;exitDx=0;exitDy=0;" edge="1" parent="1" source="tgbROBhhf7KlIg7N5KjR-28" target="fU5oJugifwXxQRmkuC7O-78">
          <mxGeometry width="50" height="50" relative="1" as="geometry">
            <mxPoint x="850" y="830" as="sourcePoint" />
            <mxPoint x="900" y="780" as="targetPoint" />
            <Array as="points">
              <mxPoint x="1086" y="735" />
            </Array>
          </mxGeometry>
        </mxCell>
        <mxCell id="pS93w77z2RvfIC005EYZ-18" value="" style="endArrow=classic;html=1;rounded=0;exitX=1;exitY=0.5;exitDx=0;exitDy=0;" edge="1" parent="1" source="pS93w77z2RvfIC005EYZ-11" target="fU5oJugifwXxQRmkuC7O-78">
          <mxGeometry width="50" height="50" relative="1" as="geometry">
            <mxPoint x="1090" y="760" as="sourcePoint" />
            <mxPoint x="1140" y="710" as="targetPoint" />
            <Array as="points">
              <mxPoint x="1086" y="550" />
            </Array>
          </mxGeometry>
        </mxCell>
      </root>
    </mxGraphModel>
  </diagram>
</mxfile>
